<svg width="1075" height="769" viewBox="0 0 1075 769" fill="none" xmlns="http://www.w3.org/2000/svg">
<g filter="url(#filter0_d_4_50)">
<path fill-rule="evenodd" clip-rule="evenodd" d="M50 6C27.9086 6 10 23.9086 10 46V715C10 737.091 27.9086 755 50 755H1025C1047.09 755 1065 737.091 1065 715V46C1065 23.9086 1047.09 6 1025 6H50ZM117.5 155.5C147.876 155.5 172.5 130.876 172.5 100.5C172.5 70.1243 147.876 45.5 117.5 45.5C87.1243 45.5 62.5 70.1243 62.5 100.5C62.5 130.876 87.1243 155.5 117.5 155.5ZM312.5 100.5C312.5 130.876 287.876 155.5 257.5 155.5C227.124 155.5 202.5 130.876 202.5 100.5C202.5 70.1243 227.124 45.5 257.5 45.5C287.876 45.5 312.5 70.1243 312.5 100.5ZM397.5 155.5C427.876 155.5 452.5 130.876 452.5 100.5C452.5 70.1243 427.876 45.5 397.5 45.5C367.124 45.5 342.5 70.1243 342.5 100.5C342.5 130.876 367.124 155.5 397.5 155.5ZM592.5 100.5C592.5 130.876 567.876 155.5 537.5 155.5C507.124 155.5 482.5 130.876 482.5 100.5C482.5 70.1243 507.124 45.5 537.5 45.5C567.876 45.5 592.5 70.1243 592.5 100.5ZM677.5 155.5C707.876 155.5 732.5 130.876 732.5 100.5C732.5 70.1243 707.876 45.5 677.5 45.5C647.124 45.5 622.5 70.1243 622.5 100.5C622.5 130.876 647.124 155.5 677.5 155.5ZM872.5 100.5C872.5 130.876 847.876 155.5 817.5 155.5C787.124 155.5 762.5 130.876 762.5 100.5C762.5 70.1243 787.124 45.5 817.5 45.5C847.876 45.5 872.5 70.1243 872.5 100.5ZM957.5 155.5C987.876 155.5 1012.5 130.876 1012.5 100.5C1012.5 70.1243 987.876 45.5 957.5 45.5C927.124 45.5 902.5 70.1243 902.5 100.5C902.5 130.876 927.124 155.5 957.5 155.5ZM172.5 240.5C172.5 270.876 147.876 295.5 117.5 295.5C87.1243 295.5 62.5 270.876 62.5 240.5C62.5 210.124 87.1243 185.5 117.5 185.5C147.876 185.5 172.5 210.124 172.5 240.5ZM257.5 295.5C287.876 295.5 312.5 270.876 312.5 240.5C312.5 210.124 287.876 185.5 257.5 185.5C227.124 185.5 202.5 210.124 202.5 240.5C202.5 270.876 227.124 295.5 257.5 295.5ZM452.5 240.5C452.5 270.876 427.876 295.5 397.5 295.5C367.124 295.5 342.5 270.876 342.5 240.5C342.5 210.124 367.124 185.5 397.5 185.5C427.876 185.5 452.5 210.124 452.5 240.5ZM537.5 295.5C567.876 295.5 592.5 270.876 592.5 240.5C592.5 210.124 567.876 185.5 537.5 185.5C507.124 185.5 482.5 210.124 482.5 240.5C482.5 270.876 507.124 295.5 537.5 295.5ZM732.5 240.5C732.5 270.876 707.876 295.5 677.5 295.5C647.124 295.5 622.5 270.876 622.5 240.5C622.5 210.124 647.124 185.5 677.5 185.5C707.876 185.5 732.5 210.124 732.5 240.5ZM817.5 295.5C847.876 295.5 872.5 270.876 872.5 240.5C872.5 210.124 847.876 185.5 817.5 185.5C787.124 185.5 762.5 210.124 762.5 240.5C762.5 270.876 787.124 295.5 817.5 295.5ZM1012.5 240.5C1012.5 270.876 987.876 295.5 957.5 295.5C927.124 295.5 902.5 270.876 902.5 240.5C902.5 210.124 927.124 185.5 957.5 185.5C987.876 185.5 1012.5 210.124 1012.5 240.5ZM117.5 435.5C147.876 435.5 172.5 410.876 172.5 380.5C172.5 350.124 147.876 325.5 117.5 325.5C87.1243 325.5 62.5 350.124 62.5 380.5C62.5 410.876 87.1243 435.5 117.5 435.5ZM312.5 380.5C312.5 410.876 287.876 435.5 257.5 435.5C227.124 435.5 202.5 410.876 202.5 380.5C202.5 350.124 227.124 325.5 257.5 325.5C287.876 325.5 312.5 350.124 312.5 380.5ZM397.5 435.5C427.876 435.5 452.5 410.876 452.5 380.5C452.5 350.124 427.876 325.5 397.5 325.5C367.124 325.5 342.5 350.124 342.5 380.5C342.5 410.876 367.124 435.5 397.5 435.5ZM592.5 380.5C592.5 410.876 567.876 435.5 537.5 435.5C507.124 435.5 482.5 410.876 482.5 380.5C482.5 350.124 507.124 325.5 537.5 325.5C567.876 325.5 592.5 350.124 592.5 380.5ZM677.5 435.5C707.876 435.5 732.5 410.876 732.5 380.5C732.5 350.124 707.876 325.5 677.5 325.5C647.124 325.5 622.5 350.124 622.5 380.5C622.5 410.876 647.124 435.5 677.5 435.5ZM872.5 380.5C872.5 410.876 847.876 435.5 817.5 435.5C787.124 435.5 762.5 410.876 762.5 380.5C762.5 350.124 787.124 325.5 817.5 325.5C847.876 325.5 872.5 350.124 872.5 380.5ZM957.5 435.5C987.876 435.5 1012.5 410.876 1012.5 380.5C1012.5 350.124 987.876 325.5 957.5 325.5C927.124 325.5 902.5 350.124 902.5 380.5C902.5 410.876 927.124 435.5 957.5 435.5ZM172.5 520.5C172.5 550.876 147.876 575.5 117.5 575.5C87.1243 575.5 62.5 550.876 62.5 520.5C62.5 490.124 87.1243 465.5 117.5 465.5C147.876 465.5 172.5 490.124 172.5 520.5ZM257.5 575.5C287.876 575.5 312.5 550.876 312.5 520.5C312.5 490.124 287.876 465.5 257.5 465.5C227.124 465.5 202.5 490.124 202.5 520.5C202.5 550.876 227.124 575.5 257.5 575.5ZM452.5 520.5C452.5 550.876 427.876 575.5 397.5 575.5C367.124 575.5 342.5 550.876 342.5 520.5C342.5 490.124 367.124 465.5 397.5 465.5C427.876 465.5 452.5 490.124 452.5 520.5ZM537.5 575.5C567.876 575.5 592.5 550.876 592.5 520.5C592.5 490.124 567.876 465.5 537.5 465.5C507.124 465.5 482.5 490.124 482.5 520.5C482.5 550.876 507.124 575.5 537.5 575.5ZM732.5 520.5C732.5 550.876 707.876 575.5 677.5 575.5C647.124 575.5 622.5 550.876 622.5 520.5C622.5 490.124 647.124 465.5 677.5 465.5C707.876 465.5 732.5 490.124 732.5 520.5ZM817.5 575.5C847.876 575.5 872.5 550.876 872.5 520.5C872.5 490.124 847.876 465.5 817.5 465.5C787.124 465.5 762.5 490.124 762.5 520.5C762.5 550.876 787.124 575.5 817.5 575.5ZM1012.5 520.5C1012.5 550.876 987.876 575.5 957.5 575.5C927.124 575.5 902.5 550.876 902.5 520.5C902.5 490.124 927.124 465.5 957.5 465.5C987.876 465.5 1012.5 490.124 1012.5 520.5ZM117.5 715.5C147.876 715.5 172.5 690.876 172.5 660.5C172.5 630.124 147.876 605.5 117.5 605.5C87.1243 605.5 62.5 630.124 62.5 660.5C62.5 690.876 87.1243 715.5 117.5 715.5ZM312.5 660.5C312.5 690.876 287.876 715.5 257.5 715.5C227.124 715.5 202.5 690.876 202.5 660.5C202.5 630.124 227.124 605.5 257.5 605.5C287.876 605.5 312.5 630.124 312.5 660.5ZM397.5 715.5C427.876 715.5 452.5 690.876 452.5 660.5C452.5 630.124 427.876 605.5 397.5 605.5C367.124 605.5 342.5 630.124 342.5 660.5C342.5 690.876 367.124 715.5 397.5 715.5ZM592.5 660.5C592.5 690.876 567.876 715.5 537.5 715.5C507.124 715.5 482.5 690.876 482.5 660.5C482.5 630.124 507.124 605.5 537.5 605.5C567.876 605.5 592.5 630.124 592.5 660.5ZM677.5 715.5C707.876 715.5 732.5 690.876 732.5 660.5C732.5 630.124 707.876 605.5 677.5 605.5C647.124 605.5 622.5 630.124 622.5 660.5C622.5 690.876 647.124 715.5 677.5 715.5ZM872.5 660.5C872.5 690.876 847.876 715.5 817.5 715.5C787.124 715.5 762.5 690.876 762.5 660.5C762.5 630.124 787.124 605.5 817.5 605.5C847.876 605.5 872.5 630.124 872.5 660.5ZM957.5 715.5C987.876 715.5 1012.5 690.876 1012.5 660.5C1012.5 630.124 987.876 605.5 957.5 605.5C927.124 605.5 902.5 630.124 902.5 660.5C902.5 690.876 927.124 715.5 957.5 715.5Z" fill="white" fill-opacity="0.89" shape-rendering="crispEdges"/>
</g>
<defs>
<filter id="filter0_d_4_50" x="0" y="0" width="1075" height="769" filterUnits="userSpaceOnUse" color-interpolation-filters="sRGB">
<feFlood flood-opacity="0" result="BackgroundImageFix"/>
<feColorMatrix in="SourceAlpha" type="matrix" values="0 0 0 0 0 0 0 0 0 0 0 0 0 0 0 0 0 0 127 0" result="hardAlpha"/>
<feOffset dy="4"/>
<feGaussianBlur stdDeviation="5"/>
<feComposite in2="hardAlpha" operator="out"/>
<feColorMatrix type="matrix" values="0 0 0 0 0 0 0 0 0 0 0 0 0 0 0 0 0 0 0.25 0"/>
<feBlend mode="normal" in2="BackgroundImageFix" result="effect1_dropShadow_4_50"/>
<feBlend mode="normal" in="SourceGraphic" in2="effect1_dropShadow_4_50" result="shape"/>
</filter>
</defs>
</svg>
